<?xml version="1.0" standalone="no"?>
<!DOCTYPE svg PUBLIC "-//W3C//DTD SVG 20010904//EN"
 "http://www.w3.org/TR/2001/REC-SVG-20010904/DTD/svg10.dtd">
<svg version="1.0" xmlns="http://www.w3.org/2000/svg"
 width="700.000000pt" height="700.000000pt" viewBox="0 0 700.000000 700.000000"
 preserveAspectRatio="xMidYMid meet">
<metadata>
Created by potrace 1.11, written by Peter Selinger 2001-2013
</metadata>
<g transform="translate(0.000000,700.000000) scale(0.100000,-0.100000)"
fill="#000000" stroke="none">
<path d="M1419 6996 c-2 -2 -44 -7 -94 -11 -49 -4 -92 -8 -95 -10 -3 -1 -26
-6 -53 -9 -146 -20 -407 -108 -508 -172 -21 -13 -41 -24 -45 -24 -6 0 -82 -52
-123 -85 -32 -26 -150 -142 -177 -176 -62 -76 -136 -201 -183 -309 -47 -108
-101 -312 -115 -435 -4 -27 -11 -81 -15 -120 -11 -79 -9 -4285 1 -4325 4 -14
11 -57 17 -96 10 -68 27 -149 50 -240 66 -261 237 -525 442 -681 172 -132 434
-238 662 -269 15 -2 39 -6 55 -9 15 -3 63 -8 107 -12 101 -10 4200 -10 4316
-1 47 4 105 11 130 17 24 5 62 12 84 16 22 3 58 11 80 16 22 6 45 12 50 13 6
1 35 10 65 20 349 113 598 321 753 631 40 79 100 240 111 299 3 12 11 53 20
92 8 38 17 90 21 115 3 24 8 60 12 79 10 52 13 4275 3 4345 -5 33 -11 82 -15
109 -30 239 -122 492 -239 661 -58 85 -72 101 -152 180 -204 201 -491 326
-879 381 -51 7 -4278 17 -4286 10z"/>
</g>
</svg>
